<svg xmlns="http://www.w3.org/2000/svg" viewBox="0 0 1000 950" role="img" aria-labelledby="title"><title id="title">Illustrated latte art in a ceramic coffee cup</title><defs><linearGradient id="bg" x1=".1" y1="0" x2=".9" y2="1"><stop stop-color="#ddbe91"/><stop offset="1" stop-color="#8a694f"/></linearGradient><radialGradient id="light"><stop stop-color="#fff3db" stop-opacity=".6"/><stop offset="1" stop-color="#fff3db" stop-opacity="0"/></radialGradient><linearGradient id="cup" x2="1" y2="1"><stop stop-color="#fff9ea"/><stop offset=".5" stop-color="#e7d6b8"/><stop offset="1" stop-color="#a88c70"/></linearGradient><filter id="shadow"><feGaussianBlur stdDeviation="22"/></filter></defs><rect width="1000" height="950" fill="url(#bg)"/><circle cx="230" cy="210" r="470" fill="url(#light)"/><path d="M0 620q400-100 1000 45v285H0Z" fill="#9c714e" opacity=".5"/><g opacity=".13" stroke="#fff3dc" stroke-width="8"><path d="M-50 100 1020 800M-100 230 960 930M190-50 1030 500"/></g><ellipse cx="505" cy="670" rx="340" ry="93" fill="#34291e" opacity=".25" filter="url(#shadow)"/><ellipse cx="500" cy="610" rx="308" ry="122" fill="#efe0c6"/><ellipse cx="500" cy="596" rx="284" ry="105" fill="#ae8c6a"/><path d="M245 597q0 183 255 195 260-8 270-190" fill="url(#cup)"/><ellipse cx="501" cy="590" rx="271" ry="108" fill="#fff5df"/><ellipse cx="500" cy="585" rx="246" ry="92" fill="#9e5d38"/><ellipse cx="500" cy="588" rx="207" ry="73" fill="#dfb88c"/><path d="M500 616q-135-73-75-104 43-23 75 24 33-47 75-24 60 32-75 104Zm0 6v-103m0 100q-66-46-121-31m121 31q66-46 121-31" fill="#fbf0df" stroke="#fff8ed" stroke-width="7" stroke-linejoin="round"/><path d="M759 610q132-28 124 62-12 98-133 61" fill="none" stroke="#e8d2b3" stroke-width="35"/><g transform="translate(180 790) rotate(-22)"><ellipse cx="0" cy="0" rx="29" ry="43" fill="#5c3b27"/><path d="M0-33q-19 32 0 66" fill="none" stroke="#a6774d" stroke-width="6"/></g><g transform="translate(780 145) rotate(25)"><ellipse cx="0" cy="0" rx="25" ry="37" fill="#5c3b27"/><path d="M0-27q17 27 0 54" fill="none" stroke="#a6774d" stroke-width="5"/></g></svg>