<svg xmlns="http://www.w3.org/2000/svg" viewBox="0 0 1000 950" role="img" aria-labelledby="title"><title id="title">Illustrated freshly baked croissant on a plate</title><defs><linearGradient id="bg" x1=".1" y1="0" x2=".9" y2="1"><stop stop-color="#d9b68e"/><stop offset="1" stop-color="#8f6a4c"/></linearGradient><radialGradient id="light"><stop stop-color="#fff3db" stop-opacity=".6"/><stop offset="1" stop-color="#fff3db" stop-opacity="0"/></radialGradient><linearGradient id="cup" x2="1" y2="1"><stop stop-color="#fff9ea"/><stop offset=".5" stop-color="#e7d6b8"/><stop offset="1" stop-color="#a88c70"/></linearGradient><filter id="shadow"><feGaussianBlur stdDeviation="22"/></filter></defs><rect width="1000" height="950" fill="url(#bg)"/><circle cx="230" cy="210" r="470" fill="url(#light)"/><path d="M0 620q400-100 1000 45v285H0Z" fill="#947659" opacity=".5"/><g opacity=".13" stroke="#fff3dc" stroke-width="8"><path d="M-50 100 1020 800M-100 230 960 930M190-50 1030 500"/></g><ellipse cx="510" cy="700" rx="340" ry="98" fill="#3d2c1a" opacity=".2" filter="url(#shadow)"/><ellipse cx="510" cy="635" rx="358" ry="126" fill="#ebe1cf"/><ellipse cx="510" cy="635" rx="310" ry="97" fill="#fff8e9"/><path d="M248 650q-70-69 16-161 26-20 66 3 65-100 150-38 90-80 157 26 50-14 88 44 62 85-28 130-211 88-449-4Z" fill="#bb783a" stroke="#8c542b" stroke-width="8"/><path d="M276 622q10-114 76-132m-35 167q18-140 85-183m-16 193q25-156 97-189m0 192q26-163 93-177m0 166q16-120 74-140" fill="none" stroke="#eabe78" stroke-width="25" stroke-linecap="round"/><path d="M270 613q62 31 96 3m40 33q30-40 92-22m37-14q67-32 107 4" fill="none" stroke="#f9da98" stroke-opacity=".72" stroke-width="14"/><g fill="#a16a43"><ellipse cx="178" cy="342" rx="22" ry="8" transform="rotate(35 178 342)"/><ellipse cx="820" cy="760" rx="35" ry="10" transform="rotate(-15 820 760)"/></g></svg>